HIERARCHY
ROOT Hips
{
	OFFSET -3.958830 18.904000 13.208200
	CHANNELS 6 Xposition Yposition Zposition Zrotation Yrotation Xrotation 
	JOINT LHipJoint
	{
		OFFSET 0.000000 0.000000 0.000000
		CHANNELS 3 Zrotation Yrotation Xrotation
		JOINT LeftUpLeg
		{
			OFFSET 1.800000 -1.400000 0.085000
			CHANNELS 3 Zrotation Yrotation Xrotation
			JOINT LeftLeg
			{
				OFFSET 2.215000 -6.000000 0.000000
				CHANNELS 3 Zrotation Yrotation Xrotation
				JOINT LeftFoot
				{
					OFFSET 2.500000 -6.900000 0.000000
					CHANNELS 3 Zrotation Yrotation Xrotation
					JOINT LeftToeBase
					{
						OFFSET 0.200000 -0.500000 1.950000
						CHANNELS 3 Zrotation Yrotation Xrotation
						End Site
						{
							OFFSET 0.000000 0.000000 0.000000
						}
					}
				}
			}
		}
	}
	JOINT RHipJoint
	{
		OFFSET 0.000000 0.000000 0.000000
		CHANNELS 3 Zrotation Yrotation Xrotation
		JOINT RightUpLeg
		{
			OFFSET -1.800000 -1.400000 0.085000
			CHANNELS 3 Zrotation Yrotation Xrotation
			JOINT RightLeg
			{
				OFFSET -2.215000 -6.000000 0.000000
				CHANNELS 3 Zrotation Yrotation Xrotation
				JOINT RightFoot
				{
					OFFSET -2.500000 -6.900000 0.000000
					CHANNELS 3 Zrotation Yrotation Xrotation
					JOINT RightToeBase
					{
						OFFSET -0.200000 -0.500000 1.950000
						CHANNELS 3 Zrotation Yrotation Xrotation
						End Site
						{
							OFFSET 0.000000 0.000000 0.000000
						}
					}
				}
			}
		}
	}
	JOINT LowerBack
	{
		OFFSET 0.000000 0.000000 0.000000
		CHANNELS 3 Zrotation Yrotation Xrotation
		JOINT Spine
		{
			OFFSET -0.087000 1.940000 -0.288900
			CHANNELS 3 Zrotation Yrotation Xrotation
			JOINT Spine1
			{
				OFFSET 0.000000 1.950000 0.060000
				CHANNELS 3 Zrotation Yrotation Xrotation
				JOINT Neck
				{
					OFFSET 0.000000 0.000000 0.000000
					CHANNELS 3 Zrotation Yrotation Xrotation
					JOINT Neck1
					{
						OFFSET 0.000000 1.600000 0.340000
						CHANNELS 3 Zrotation Yrotation Xrotation
						JOINT Head
						{
							OFFSET 0.000000 1.667000 -0.240000
							CHANNELS 3 Zrotation Yrotation Xrotation
							End Site
							{
								OFFSET 0.000000 0.000000 0.000000
							}
						}
					}
				}
				JOINT LeftShoulder
				{
					OFFSET 0.000000 0.000000 0.000000
					CHANNELS 3 Zrotation Yrotation Xrotation
					JOINT LeftArm
					{
						OFFSET 2.700000 1.550000 -0.730000
						CHANNELS 3 Zrotation Yrotation Xrotation
						JOINT LeftForeArm
						{
							OFFSET 5.450000 0.000000 0.000000
							CHANNELS 3 Zrotation Yrotation Xrotation
							JOINT LeftHand
							{
								OFFSET 3.450000 0.000000 0.000000
								CHANNELS 3 Zrotation Yrotation Xrotation
								JOINT LeftHandIndex1
								{
									OFFSET 0.750000 0.000000 0.000000
									CHANNELS 3 Zrotation Yrotation Xrotation
									End Site
									{
										OFFSET 0.000000 0.000000 0.000000
									}
								}
							}
						}
					}
				}
				JOINT RightShoulder
				{
					OFFSET 0.000000 0.000000 0.000000
					CHANNELS 3 Zrotation Yrotation Xrotation
					JOINT RightArm
					{
						OFFSET -2.700000 1.550000 -0.730000
						CHANNELS 3 Zrotation Yrotation Xrotation
						JOINT RightForeArm
						{
							OFFSET -5.450000 0.000000 0.000000
							CHANNELS 3 Zrotation Yrotation Xrotation
							JOINT RightHand
							{
								OFFSET -3.450000 0.000000 0.000000
								CHANNELS 3 Zrotation Yrotation Xrotation
								JOINT RightHandIndex1
								{
									OFFSET -0.750000 0.000000 0.000000
									CHANNELS 3 Zrotation Yrotation Xrotation
									End Site
									{
										OFFSET 0.000000 0.000000 0.000000
									}
								}
							}
						}
					}
				}
			}
		}
	}
}
MOTION
Frames: 14
Frame Time: 0.016667
-0.444040 17.405630 -3.930150 -5.387027 1.371233 -8.313438 -14.812757 10.783985 5.424852 21.542019 -1.528093 -35.049738 -23.002540 22.731277 43.870616 0.855837 11.151150 0.280586 0.442110 0.491510 0.399120 18.678271 -11.140620 2.192392 -19.587454 5.315212 -10.839363 13.432933 -13.493232 39.080356 -1.091898 -7.217874 1.551288 0.179530 -0.250950 0.098460 -4.776147 1.932409 -9.050227 21.238507 -0.417325 24.757547 -11.259545 5.623346 7.966214 6.156648 4.199172 -15.077547 12.404868 -10.391059 61.614996 1.578030 -5.858520 -18.819080 -22.210361 -19.611887 8.808026 -40.111306 3.550975 -9.503229 -39.353800 -25.047297 3.630502 -3.238598 2.951459 0.694180 -0.345050 0.507290 -0.019970 9.478183 23.128629 7.896192 49.483226 23.259381 0.304040 1.167907 20.438131 -0.467246 2.420277 -0.950663 -0.002470 0.255190 -0.038440 -0.074220 
-0.470230 17.411550 -3.949940 -5.314970 1.466854 -8.239887 -14.835088 10.819072 5.439794 21.453985 -1.701009 -35.448205 -22.500465 22.524537 44.185734 0.818983 11.148473 0.274605 0.423370 0.457610 0.408080 18.658369 -11.088614 2.197757 -19.606573 5.272835 -10.935826 13.690181 -13.569843 38.837261 -1.084556 -7.197457 1.547244 0.167620 -0.251890 0.099040 -4.718546 1.780852 -9.061604 20.887023 -0.457300 24.900492 -11.122260 5.564780 7.455021 6.131411 4.218450 -14.922193 12.270517 -9.994783 61.893398 1.282140 -5.271170 -18.737410 -22.575220 -19.261761 8.582690 -40.556332 3.463231 -9.400050 -39.305265 -24.171473 3.338871 -3.257271 2.926183 0.712730 -0.343100 0.504410 -0.040310 9.846625 22.621592 7.839009 49.776201 22.282198 -0.529995 1.273024 21.445872 -0.559089 2.409315 -0.936878 -0.021310 0.256330 -0.021450 -0.093440 
-0.492970 17.419500 -3.968400 -5.358474 1.565567 -8.092611 -14.858276 10.855226 5.454697 21.514626 -1.816613 -35.822988 -22.000756 22.285053 44.406768 0.790959 11.133186 0.273117 0.412260 0.430350 0.420290 18.641141 -11.011279 2.213425 -19.613447 5.245771 -11.033365 14.215792 -13.757532 38.516863 -1.091759 -7.197437 1.539004 0.149760 -0.254090 0.117230 -4.664451 1.589177 -9.080184 20.680696 -0.528057 24.990607 -11.015325 5.501523 6.855693 6.067119 4.128218 -14.690292 11.596248 -9.340957 62.085214 0.735290 -4.575310 -18.893330 -22.836353 -18.784229 8.335522 -40.906875 3.413199 -9.307068 -39.376834 -23.634532 3.187084 -3.276632 2.915536 0.729160 -0.339410 0.511730 -0.053770 10.172001 21.962816 7.722753 50.020892 21.151872 -1.357715 1.870936 22.487241 -0.546710 2.403090 -0.925011 -0.024310 0.247730 -0.009490 -0.106200 
-0.511050 17.429740 -3.980470 -5.428683 1.508030 -7.947184 -14.878651 10.898920 5.456468 21.740991 -1.761480 -35.873543 -21.802109 22.083845 44.173509 0.741323 11.079371 0.273052 0.385620 0.398340 0.423060 18.624750 -10.942124 2.229290 -19.600996 5.226289 -11.072463 14.717580 -13.878534 38.080199 -1.079175 -7.175879 1.549738 0.135720 -0.259050 0.110050 -4.614027 1.409414 -9.093703 20.452825 -0.494966 25.009467 -10.937080 5.530551 6.405801 6.040731 3.953751 -14.478211 10.759804 -8.275649 62.177545 -0.198920 -3.348550 -19.035650 -22.761959 -18.316618 8.070767 -41.180968 3.275710 -9.200131 -39.809546 -23.076864 3.076456 -3.305943 2.886247 0.741940 -0.330980 0.504220 -0.081510 10.097233 21.366993 7.675775 50.460706 20.034239 -2.106608 2.700932 23.401256 -0.486144 2.390350 -0.900643 -0.043020 0.249930 0.014460 -0.129860 
-0.524880 17.441450 -3.996740 -5.595452 1.597758 -7.737916 -14.899093 10.949493 5.454822 21.917013 -1.772237 -36.140508 -21.194590 21.729904 44.173139 0.697065 11.008226 0.280825 0.367610 0.369000 0.435620 18.611088 -10.856150 2.251936 -19.541039 5.194033 -11.172557 15.364823 -14.024531 37.527173 -1.072856 -7.151082 1.552244 0.117820 -0.266850 0.119460 -4.569521 1.187028 -9.109460 20.316769 -0.524037 24.960718 -10.879630 5.515170 6.007975 5.966407 3.586391 -14.260486 9.301532 -6.764556 62.270447 -1.166590 -1.952020 -19.050050 -22.478917 -17.903827 7.815099 -41.443280 2.950486 -9.049180 -40.234802 -22.569873 2.979970 -3.333918 2.876437 0.750430 -0.323470 0.504580 -0.104750 9.908655 20.863052 7.627734 50.809520 18.942371 -2.692870 3.693146 23.864771 -0.352335 2.394627 -0.889009 -0.048520 0.236070 0.028990 -0.148160 
-0.544270 17.458340 -4.014540 -5.527287 1.721574 -7.657228 -14.950041 11.106319 5.414198 21.782503 -1.845169 -36.220132 -20.107320 21.167386 44.322315 0.631650 10.894006 0.297007 0.343550 0.324090 0.453580 18.553863 -10.752404 2.276031 -19.588788 5.155579 -11.209401 15.907095 -14.129242 37.038177 -1.065693 -7.122301 1.546818 0.093380 -0.279300 0.136910 -4.418823 0.771505 -9.121935 19.333944 -0.363008 25.212557 -10.252582 5.556547 5.689052 5.848587 2.912554 -14.293918 7.063692 -4.664629 62.827496 -2.651160 -0.133560 -18.941580 -22.140633 -17.796940 7.646256 -41.993263 2.570527 -9.035154 -40.213593 -22.354091 2.837394 -3.364950 2.861950 0.769460 -0.316640 0.509520 -0.134800 9.814768 20.991282 7.819580 50.924727 17.539718 -3.608134 4.567066 24.439422 -0.244116 2.394490 -0.876645 -0.058310 0.216670 0.050380 -0.174450 
-0.561450 17.472860 -4.029770 -5.656768 2.111292 -7.494400 -15.004791 11.259492 5.389976 21.722729 -1.966664 -36.697938 -18.469294 20.540274 45.045226 0.561679 10.826028 0.300578 0.295380 0.249990 0.456540 18.501034 -10.626565 2.292112 -19.464477 5.079325 -11.144269 16.520347 -14.318987 36.608606 -1.052160 -7.119859 1.537130 0.056430 -0.275560 0.149410 -4.273552 0.309273 -9.138776 18.537889 -0.291173 25.224877 -9.645282 5.520326 5.404355 5.747400 1.923726 -14.403798 4.082211 -1.868792 63.154017 -4.213020 2.076950 -18.317120 -21.711312 -17.731130 7.505324 -42.935052 2.087918 -9.046334 -39.678210 -22.312007 2.665603 -3.410699 2.839358 0.784070 -0.298320 0.496700 -0.173320 9.610222 21.330592 8.120159 51.289909 16.001445 -4.539014 5.253419 24.737153 -0.165786 2.395750 -0.861064 -0.081050 0.198670 0.087970 -0.203100 
-0.580990 17.479500 -4.038400 -5.624706 2.628442 -7.231568 -15.064462 11.436304 5.340760 21.384002 -2.211607 -37.234565 -16.496181 19.773038 45.942660 0.474703 10.735760 0.315316 0.232980 0.158170 0.447980 18.443173 -10.495841 2.305156 -19.489734 4.929062 -11.151749 17.142614 -14.534453 36.139680 -1.026782 -7.121249 1.528363 0.021670 -0.266090 0.146850 -4.114260 -0.205842 -9.133354 17.440751 -0.083658 24.918861 -8.921953 5.447946 5.166714 5.632530 0.705048 -14.503293 0.417903 1.491199 63.242714 -5.920770 4.716150 -17.370670 -21.059505 -17.529076 7.265318 -44.071659 1.082456 -8.755375 -38.446284 -21.924827 2.370907 -3.461030 2.805159 0.801570 -0.275990 0.470730 -0.210630 9.270562 21.562393 8.434900 51.964079 14.335710 -5.531259 6.239111 25.106709 -0.055693 2.394985 -0.847218 -0.125610 0.187480 0.130820 -0.240020 
-0.599360 17.485890 -4.035570 -5.805640 3.070412 -6.932356 -15.122157 11.644133 5.271977 21.119530 -2.352381 -37.744553 -14.127052 18.828932 46.906439 0.400198 10.594534 0.363223 0.180910 0.080550 0.438590 18.388410 -10.368497 2.301726 -19.250399 4.710721 -10.942470 17.646404 -14.597479 35.415492 -1.000128 -7.063296 1.553625 -0.010610 -0.253090 0.131190 -3.962177 -0.761616 -9.094820 16.569047 0.079219 24.423697 -8.196147 5.337896 4.793766 5.523998 -0.917723 -14.589765 -4.314142 5.472851 62.651738 -7.573750 7.589250 -16.434540 -20.648021 -16.987313 6.881195 -45.295486 -0.114463 -8.221067 -36.763335 -21.162172 2.003345 -3.491855 2.777636 0.812700 -0.260620 0.443830 -0.226500 9.196293 21.706383 8.755735 52.736780 12.478343 -6.614431 7.141417 25.432878 0.027037 2.402185 -0.844165 -0.168670 0.184930 0.154920 -0.268390 
-0.624950 17.490740 -4.028550 -5.867787 3.496133 -6.576103 -15.169283 11.848394 5.172418 20.690913 -2.494826 -38.151989 -11.709011 17.782319 47.690172 0.335743 10.407129 0.456280 0.148980 0.024640 0.436850 18.346935 -10.259624 2.291091 -19.012357 4.555312 -10.976342 17.853235 -14.637754 35.186462 -0.977702 -7.031270 1.588192 -0.022790 -0.219610 0.090930 -3.841408 -1.273467 -9.009609 15.584473 0.243282 23.924194 -7.681922 5.224386 4.274764 5.271288 -2.950365 -14.548041 -10.078591 10.060924 60.659224 -8.398190 10.447410 -15.459390 -20.543421 -16.064912 6.226567 -46.081011 -1.735428 -7.205650 -34.433716 -19.654334 1.526077 -3.506498 2.735141 0.818940 -0.247460 0.408960 -0.210540 9.746902 21.694487 8.988446 53.559809 10.696693 -7.513779 7.879434 25.155179 0.059035 2.420751 -0.845400 -0.228090 0.213820 0.148550 -0.286560 
-0.651680 17.494720 -4.024150 -5.906997 4.144984 -6.054273 -15.221570 12.019480 5.083002 20.200860 -2.766742 -38.687917 -9.576956 16.657283 48.048236 0.287788 10.164003 0.570196 0.149200 -0.007910 0.452740 18.308579 -10.123547 2.283948 -18.906308 4.372143 -11.109994 18.359944 -14.762044 34.776973 -0.968781 -7.013173 1.603823 -0.033410 -0.188440 0.077220 -3.717760 -1.794998 -8.907931 14.413451 0.348745 23.358765 -7.044623 4.975580 3.465163 4.827259 -4.888051 -14.390685 -15.871804 14.516639 57.440210 -8.385820 12.958850 -14.504210 -20.875242 -14.860604 5.419806 -46.861803 -3.605885 -5.743580 -31.354120 -17.211847 0.917685 -3.513525 2.735405 0.815610 -0.240720 0.380530 -0.185230 11.132259 21.172456 9.080358 53.783643 8.672910 -8.355523 9.005968 24.871700 0.158689 2.453624 -0.870995 -0.256710 0.216430 0.126290 -0.292180 
-0.682600 17.506190 -4.020490 -6.048054 4.723679 -5.702334 -15.257459 12.158834 5.005969 19.970899 -2.957155 -38.896833 -8.135636 15.722731 47.864676 0.218079 9.921876 0.662010 0.156200 -0.020200 0.445240 18.284461 -10.026556 2.264998 -18.538076 4.200054 -11.119162 18.577249 -14.810916 34.567455 -0.964024 -6.994150 1.619261 -0.029710 -0.157910 0.068860 -3.635942 -2.205979 -8.801335 13.442368 0.384375 23.148801 -6.714187 4.820104 2.357120 4.283011 -6.413866 -14.214570 -21.066108 18.356964 54.077468 -7.703270 14.663590 -14.170370 -22.084036 -13.734497 4.555837 -46.926237 -5.173656 -4.149798 -27.659038 -14.570108 0.386298 -3.519693 2.733608 0.821310 -0.238560 0.354780 -0.164170 13.542951 20.373297 9.120743 53.418174 6.376665 -9.075978 9.987157 24.323631 0.251110 2.466823 -0.879408 -0.279280 0.223850 0.123740 -0.292630 
-0.716020 17.510790 -4.025460 -6.198791 4.935885 -5.012015 -15.289630 12.183137 5.006438 20.083894 -3.031082 -39.472306 -7.545598 15.272968 47.457986 0.190180 9.765716 0.716815 0.159030 -0.005590 0.402940 18.279617 -9.914112 2.252945 -18.140001 4.180911 -11.670324 18.774087 -14.812385 34.492942 -0.946008 -6.978965 1.628643 -0.014250 -0.122560 0.060680 -3.581083 -2.468174 -8.738330 12.537401 0.637568 22.823629 -6.368816 4.900234 1.246285 3.635513 -7.558138 -13.953375 -25.301531 21.303941 49.947284 -6.467810 15.771680 -13.484320 -23.357668 -12.742159 3.690676 -47.244984 -6.844283 -2.419947 -23.493511 -11.456442 -0.061910 -3.540443 2.752740 0.789000 -0.227750 0.321060 -0.141740 16.184020 19.467523 9.137637 52.409275 4.086991 -9.475836 11.447258 23.524074 0.386036 2.482108 -0.905448 -0.279590 0.220950 0.126630 -0.270180 
-0.745280 17.513350 -4.031120 -6.372339 5.066615 -4.317511 -15.310384 12.143269 5.049778 20.489413 -3.061021 -39.926583 -7.873437 15.226211 46.717243 0.187569 9.674346 0.744676 0.171640 0.023050 0.380280 18.286746 -9.814743 2.245841 -17.774396 4.180436 -12.205512 19.040295 -14.820599 34.362078 -0.941887 -6.955198 1.624670 0.002470 -0.106720 0.061020 -3.558945 -2.613575 -8.711472 11.865870 0.827898 22.595867 -6.346523 4.983818 0.125008 3.131115 -8.240355 -13.678831 -28.286545 23.492735 46.442973 -5.353150 16.629200 -13.298350 -24.687139 -11.838353 2.938562 -47.580171 -7.938232 -1.179334 -19.547315 -9.049327 -0.309021 -3.550392 2.773073 0.761030 -0.230310 0.309660 -0.125640 18.545936 18.384516 9.043551 51.663143 2.106135 -9.734497 12.936621 22.615916 0.486902 2.508369 -0.931027 -0.266300 0.212130 0.121420 -0.246220 
